<!DOCTYPE svg PUBLIC "-//W3C//DTD SVG 1.1//EN" "http://www.w3.org/Graphics/SVG/1.1/DTD/svg11.dtd">
<!-- Uploaded to: SVG Repo, www.svgrepo.com, Transformed by: SVG Repo Mixer Tools -->
<svg fill="#86B6F3" version="1.1" id="Layer_1" xmlns="http://www.w3.org/2000/svg" xmlns:xlink="http://www.w3.org/1999/xlink" viewBox="0 0 512 512" xml:space="preserve" width="800px" height="800px" stroke="#86B6F3">
<g id="SVGRepo_bgCarrier" stroke-width="0"/>
<g id="SVGRepo_tracerCarrier" stroke-linecap="round" stroke-linejoin="round"/>
<g id="SVGRepo_iconCarrier"> <g> <g> <path d="M444.796,11.194c-37.053,0.002-67.201,30.149-67.203,67.203c0,10.363,2.361,20.183,6.568,28.957l-31.116,31.116 c6.423,3.802,12.418,8.43,17.833,13.847c5.417,5.417,10.045,11.41,13.845,17.831l31.116-31.116 c8.774,4.205,18.594,6.566,28.957,6.566c37.056,0,67.203-30.147,67.204-67.204C511.999,41.343,481.851,11.197,444.796,11.194z"/> </g> </g> <g> <g> <path d="M339.198,183.998c-17.497-17.497-45.862-17.497-63.36,0L22.401,437.435l63.359,63.359l253.438-253.437 C356.694,229.862,356.694,201.495,339.198,183.998z"/> </g> </g> <g> <g> <path d="M172.801,183.998c-13.309,13.309-16.483,32.903-9.546,49.222l58.768-58.768 C205.705,167.516,186.11,170.689,172.801,183.998z"/> </g> </g> <g> <g> <path d="M98.881,78.397L83.04,94.239c-4.231,4.231-9.855,6.56-15.839,6.56c-5.984,0-11.608-2.331-15.839-6.562 c-4.231-4.231-6.561-9.855-6.561-15.839s2.33-11.608,6.561-15.84c4.231-4.229,9.855-6.56,15.84-6.562l-0.018-44.802 C49.24,11.2,32.371,18.192,19.683,30.879C6.991,43.573,0,60.448,0,78.399s6.991,34.826,19.683,47.518 c12.692,12.694,29.568,19.684,47.52,19.684c10.198,0.002,20.052-2.257,28.988-6.534l31.084,31.083 c3.789-6.392,8.406-12.392,13.847-17.834c5.417-5.417,11.41-10.043,17.833-13.845L98.881,78.397z"/> </g> </g> <g> <g> <rect x="343.85" y="301.876" transform="matrix(0.7071 -0.7071 0.7071 0.7071 -168.9025 391.9309)" width="89.603" height="195.946"/> </g> </g> </g>
</svg>