<!DOCTYPE svg PUBLIC "-//W3C//DTD SVG 1.1//EN" "http://www.w3.org/Graphics/SVG/1.1/DTD/svg11.dtd">
<!-- Uploaded to: SVG Repo, www.svgrepo.com, Transformed by: SVG Repo Mixer Tools -->
<svg fill="#86B6F3" height="800px" width="800px" version="1.1" id="Layer_1" xmlns="http://www.w3.org/2000/svg" xmlns:xlink="http://www.w3.org/1999/xlink" viewBox="0 0 512 512" xml:space="preserve" stroke="#86B6F3">
<g id="SVGRepo_bgCarrier" stroke-width="0"/>
<g id="SVGRepo_tracerCarrier" stroke-linecap="round" stroke-linejoin="round"/>
<g id="SVGRepo_iconCarrier"> <g> <g> <path d="M320.001,0H192c-22.323,0-40.421,18.098-40.421,40.421v13.474h208.843V40.421C360.422,18.098,342.325,0,320.001,0z"/> </g> </g> <g> <g> <path d="M360.36,94.316H151.64c-6.51,14.386-10.166,30.34-10.166,47.158c0,28.376,10.342,54.319,27.431,74.326 c2.277-15.41,12.583-29.51,29.061-39.397c15.82-9.491,36.43-14.719,58.034-14.719c21.605,0,42.216,5.228,58.035,14.719 c16.478,9.887,26.783,23.986,29.059,39.397c17.09-20.007,27.432-45.951,27.432-74.326 C370.526,124.656,366.871,108.702,360.36,94.316z"/> </g> </g> <g> <g> <path d="M256,202.105c-29.254,0-47.158,13.086-47.158,20.211s17.904,20.211,47.158,20.211s47.158-13.086,47.158-20.211 S285.254,202.105,256,202.105z"/> </g> </g> <g> <g> <path d="M317.999,265.702c-2.812,1.916-5.81,3.723-9.034,5.373c-15.177,7.766-33.492,11.872-52.965,11.872 s-37.788-4.105-52.965-11.872c-3.224-1.652-6.222-3.457-9.034-5.373C112.715,291.876,53.895,368.116,53.895,458.105 c0,29.765,24.13,53.895,53.895,53.895h296.421c29.766,0,53.895-24.13,53.895-53.895 C458.105,368.116,399.285,291.876,317.999,265.702z"/> </g> </g> </g>
</svg>